<?xml version="1.0" encoding="UTF-8" standalone="no"?>
<!-- Creator: CorelDRAW -->

<svg
   xml:space="preserve"
   width="225mm"
   height="150mm"
   style="shape-rendering:geometricPrecision; text-rendering:geometricPrecision; image-rendering:optimizeQuality; fill-rule:evenodd; clip-rule:evenodd"
   viewBox="0 0 225 150"
   version="1.1"
   id="svg40"
   sodipodi:docname="Flag_of_New_Zealand_(3-2).svg"
   inkscape:version="1.1 (c68e22c387, 2021-05-23)"
   xmlns:inkscape="http://www.inkscape.org/namespaces/inkscape"
   xmlns:sodipodi="http://sodipodi.sourceforge.net/DTD/sodipodi-0.dtd"
   xmlns="http://www.w3.org/2000/svg"
   xmlns:svg="http://www.w3.org/2000/svg"><sodipodi:namedview
   id="namedview42"
   pagecolor="#ffffff"
   bordercolor="#666666"
   borderopacity="1.0"
   inkscape:pageshadow="2"
   inkscape:pageopacity="0.0"
   inkscape:pagecheckerboard="0"
   inkscape:document-units="mm"
   showgrid="false"
   inkscape:zoom="1.2946944"
   inkscape:cx="148.29754"
   inkscape:cy="160.26948"
   inkscape:window-width="1280"
   inkscape:window-height="961"
   inkscape:window-x="-8"
   inkscape:window-y="-8"
   inkscape:window-maximized="1"
   inkscape:current-layer="Layer_x0020_1" />
 <defs
   id="defs4">
  <style
   type="text/css"
   id="style2">
   <![CDATA[
    .fil2 {fill:none}
    .fil1 {fill:white}
    .fil0 {fill:#282878}
    .fil3 {fill:#D32928}
   ]]>
  </style>
 </defs>
 <g
   id="Layer_x0020_1"
   inkscape:label="Layer 1">
  <metadata
   id="CorelCorpID_0Corel-Layer" />
  <polygon
   class="fil0"
   points="0,0 225,0 225,150 0,150 "
   id="polygon7"
   style="fill:#012169;fill-opacity:1" />
  <polygon
   class="fil1"
   points="170.39,13.3524 173.302,22.3726 182.781,22.3544 175.101,27.9109 178.048,36.9198 170.39,31.3337 162.732,36.9198 165.678,27.9109 157.999,22.3544 167.478,22.3726 "
   id="polygon9" />
  <polygon
   class="fil2"
   points="200.948,45.1533 203.566,53.2646 212.09,53.2482 205.185,58.2448 207.834,66.3459 200.948,61.3227 194.062,66.3459 196.711,58.2448 189.806,53.2482 198.33,53.2646 "
   id="polygon11" />
  <polygon
   class="fil1"
   points="200.948,45.1533 203.566,53.2646 212.09,53.2482 205.185,58.2448 207.834,66.3459 200.948,61.3227 194.062,66.3459 196.711,58.2448 189.806,53.2482 198.33,53.2646 "
   id="polygon13" />
  <polygon
   class="fil1"
   points="135.011,53.3077 137.923,62.3278 147.401,62.3096 139.722,67.8661 142.669,76.875 135.011,71.289 127.353,76.875 130.299,67.8661 122.62,62.3096 132.099,62.3278 "
   id="polygon15" />
  <polygon
   class="fil1"
   points="170.232,105.779 173.439,115.713 183.878,115.692 175.421,121.812 178.665,131.734 170.232,125.582 161.798,131.734 165.043,121.812 156.586,115.692 167.025,115.713 "
   id="polygon17" />
  <polygon
   class="fil3"
   points="33.75,25 37.5,25 0,0 0,2.5 0,5 30,25 "
   id="polygon19"
   style="fill:#c8102e;fill-opacity:1" />
  <polygon
   class="fil3"
   points="82.5,50 78.75,50 75,50 112.5,75 112.5,72.5 112.5,70 "
   id="polygon21"
   style="fill:#c8102e;fill-opacity:1" />
  <polygon
   class="fil3"
   points="71.25,25 75,25 112.5,0 108.75,0 105,0 67.5,25 "
   id="polygon23"
   style="fill:#c8102e;fill-opacity:1" />
  <polygon
   class="fil3"
   points="3.75,75 7.5,75 45,50 41.25,50 37.5,50 0,75 "
   id="polygon25"
   style="fill:#c8102e;fill-opacity:1" />
  <polygon
   class="fil1"
   points="26.25,50 0,67.5 0,75 37.5,50 43.75,50 43.75,50.8333 7.5,75 11.25,75 43.75,53.3333 43.75,75 68.75,75 68.75,53.3333 101.25,75 112.5,75 75,50 82.5,50 112.5,70 112.5,67.5 86.25,50 112.5,50 112.5,25 86.25,25 112.5,7.5 112.5,0 75,25 68.75,25 68.75,24.1667 105,0 101.25,0 68.75,21.6667 68.75,0 43.75,0 43.75,21.6667 11.25,0 0,0 37.5,25 30,25 0,5 0,7.5 26.25,25 0,25 0,50 "
   id="polygon27" />
  <polygon
   class="fil3"
   points="48.75,75 48.75,45 0,45 0,30 48.75,30 48.75,0 63.75,0 63.75,30 112.5,30 112.5,45 63.75,45 63.75,75 "
   id="polygon29"
   style="fill:#c8102e;fill-opacity:1" />
  <polygon
   class="fil3"
   points="170.232,110.809 172.288,117.179 178.982,117.166 173.559,121.091 175.64,127.453 170.232,123.508 164.824,127.453 166.904,121.091 161.481,117.166 168.175,117.179 "
   id="polygon31"
   style="fill:#c8102e;fill-opacity:1" />
  <polygon
   class="fil3"
   points="135.011,58.3333 136.773,63.7935 142.511,63.7824 137.863,67.146 139.646,72.5993 135.011,69.2179 130.375,72.5993 132.159,67.146 127.51,63.7824 133.248,63.7935 "
   id="polygon33"
   style="fill:#c8102e;fill-opacity:1" />
  <polygon
   class="fil3"
   points="200.948,50.1819 202.416,54.7309 207.197,54.7217 203.324,57.5239 204.81,62.0672 200.948,59.2501 197.086,62.0672 198.572,57.5239 194.699,54.7217 199.479,54.7309 "
   id="polygon35"
   style="fill:#c8102e;fill-opacity:1" />
  <polygon
   class="fil3"
   points="170.39,18.3781 172.153,23.8382 177.89,23.8272 173.242,27.1907 175.025,32.6441 170.39,29.2627 165.754,32.6441 167.538,27.1907 162.89,23.8272 168.627,23.8382 "
   id="polygon37"
   style="fill:#c8102e;fill-opacity:1" />
 </g>
</svg>
