<?xml version="1.0" standalone="no"?><svg xmlns:xlink="http://www.w3.org/1999/xlink" xmlns="http://www.w3.org/2000/svg" viewBox="0 0 1000 562.5004796218278" preserveAspectRatio="xMaxYMax slice"><g transform="scale(0.7673949244499697)"><rect x="0" y="0" width="1303.111111111111" height="733" fill="#ffffff"/><rect x="0" y="0" width="81.44" height="81.44" fill="#e3f6fd"/><path d="M 0 0 A 81.44 81.44 0 0 0 81.44 81.44 L 81.44 0" fill="#e0f5fc"/><rect x="81.44" y="0" width="81.44" height="81.44" fill="#fcf5c6"/><path d="M 81.44 81.44 A 81.44 81.44 0 0 1  162.88 0 L 162.88 81.44" fill="#f5e35b"/><rect x="162.89" y="0" width="81.44" height="81.44" fill="#63ccf1"/><polygon points="162.89,0 244.32999999999998,0 162.89,81.44" fill="#fbf3bd"/><rect x="244.33" y="0" width="81.44" height="81.44" fill="#c1ebfa"/><path d="M 244.33 81.44 A 81.44 81.44 0 0 0 325.77 0 L 244.33 0" fill="#cff0fb"/><rect x="325.78" y="0" width="81.44" height="81.44" fill="#33bded"/><rect x="325.78" y="0" width="81.44" height="81.44" fill="#65cdf2"/><rect x="407.22" y="0" width="81.44" height="81.44" fill="#fdf9db"/><path d="M 407.22 81.44 A 81.44 81.44 0 0 1  488.66 0 L 407.22 81.44 A 81.44 81.44 0 0 0 488.66 0" fill="#54c8f0"/><rect x="488.67" y="0" width="81.44" height="81.44" fill="#f6e56c"/><rect x="488.67" y="0" width="81.44" height="81.44" fill="#f8eb8c"/><rect x="570.11" y="0" width="81.44" height="81.44" fill="#4bc5ef"/><polygon points="570.11,0 651.55,0 570.11,81.44" fill="#f6e466"/><rect x="651.56" y="0" width="81.44" height="81.44" fill="#41c1ee"/><rect x="651.56" y="0" width="81.44" height="81.44" fill="#64cdf1"/><rect x="733" y="0" width="81.44" height="81.44" fill="#fcf5c6"/><path d="M 733 0 A 81.44 81.44 0 0 1  814.44 81.44 L 733 0 A 81.44 81.44 0 0 0 814.44 81.44" fill="#70d1f3"/><rect x="814.44" y="0" width="81.44" height="81.44" fill="#61ccf1"/><rect x="814.44" y="0" width="81.44" height="81.44" fill="#98def6"/><rect x="895.89" y="0" width="81.44" height="81.44" fill="#c1ebfa"/><polygon points="895.89,0 977.3299999999999,81.44 895.89,81.44" fill="#d2f0fb"/><rect x="977.33" y="0" width="81.44" height="81.44" fill="#fffffc"/><polygon points="977.33,0 1058.77,81.44 977.33,81.44" fill="#f8fdfe"/><rect x="1058.78" y="0" width="81.44" height="81.44" fill="#72d1f3"/><path d="M 1058.78 81.44 A 81.44 81.44 0 0 0 1140.22 0 L 1058.78 0" fill="#c1ebfa"/><rect x="1140.22" y="0" width="81.44" height="81.44" fill="#fefbe9"/><polygon points="1140.22,0 1221.66,81.44 1140.22,81.44" fill="#f8ec90"/><rect x="1221.67" y="0" width="81.44" height="81.44" fill="#f8eb8a"/><rect x="1221.67" y="0" width="81.44" height="81.44" fill="#fefbe8"/><rect x="0" y="81.44" width="81.44" height="81.44" fill="#f9eea0"/><path d="M 0 162.88 A 81.44 81.44 0 0 1  81.44 81.44 L 81.44 162.88" fill="#fdf9dd"/><rect x="81.44" y="81.44" width="81.44" height="81.44" fill="#b9e8f9"/><polygon points="81.44,81.44 162.88,81.44 162.88,162.88" fill="#41c2ef"/><rect x="162.89" y="81.44" width="81.44" height="81.44" fill="#f8eb8b"/><rect x="162.89" y="81.44" width="81.44" height="81.44" fill="#60ccf1"/><rect x="244.33" y="81.44" width="81.44" height="81.44" fill="#5dcbf1"/><path d="M 244.33 81.44 A 81.44 81.44 0 0 1  325.77 162.88 L 244.33 81.44 A 81.44 81.44 0 0 0 325.77 162.88" fill="#47c3ef"/><rect x="325.78" y="81.44" width="81.44" height="81.44" fill="#fbf4bd"/><rect x="325.78" y="81.44" width="81.44" height="81.44" fill="#f9ed98"/><rect x="407.22" y="81.44" width="81.44" height="81.44" fill="#82d7f4"/><polygon points="407.22,81.44 488.66,81.44 488.66,162.88" fill="#fefdf4"/><rect x="488.67" y="81.44" width="81.44" height="81.44" fill="#86d8f5"/><path d="M 488.67 81.44 A 81.44 81.44 0 0 0 570.11 162.88 L 570.11 81.44" fill="#faf0ab"/><rect x="570.11" y="81.44" width="81.44" height="81.44" fill="#f6fcfe"/><rect x="570.11" y="81.44" width="81.44" height="81.44" fill="#78d3f3"/><rect x="651.56" y="81.44" width="81.44" height="81.44" fill="#4dc5f0"/><path d="M 651.56 81.44 A 81.44 81.44 0 0 1 733 162.88 L 651.56 162.88" fill="#faf2b2"/><rect x="733" y="81.44" width="81.44" height="81.44" fill="#f8eb8f"/><polygon points="733,81.44 814.44,81.44 733,162.88" fill="#98def6"/><rect x="814.44" y="81.44" width="81.44" height="81.44" fill="#e8f7fd"/><polygon points="895.8800000000001,81.44 895.8800000000001,162.88 814.44,162.88" fill="#56c8f0"/><rect x="895.89" y="81.44" width="81.44" height="81.44" fill="#ffffff"/><path d="M 895.89 81.44 A 81.44 81.44 0 0 1  977.3299999999999 162.88 L 895.89 81.44 A 81.44 81.44 0 0 0 977.3299999999999 162.88" fill="#fcf6cd"/><rect x="977.33" y="81.44" width="81.44" height="81.44" fill="#6ed0f2"/><path d="M 977.33 162.88 A 81.44 81.44 0 0 1  1058.77 81.44 L 977.33 162.88 A 81.44 81.44 0 0 0 1058.77 81.44" fill="#36beee"/><rect x="1058.78" y="81.44" width="81.44" height="81.44" fill="#f6e466"/><path d="M 1058.78 162.88 A 81.44 81.44 0 0 1  1140.22 81.44 L 1140.22 162.88" fill="#f9ed97"/><rect x="1140.22" y="81.44" width="81.44" height="81.44" fill="#9cdff6"/><polygon points="1140.22,81.44 1221.66,162.88 1140.22,162.88" fill="#b1e6f8"/><rect x="1221.67" y="81.44" width="81.44" height="81.44" fill="#fefced"/><rect x="1221.67" y="81.44" width="81.44" height="81.44" fill="#5dcbf1"/><rect x="0" y="162.89" width="81.44" height="81.44" fill="#a3e1f7"/><rect x="0" y="162.89" width="81.44" height="81.44" fill="#f9efa5"/><rect x="81.44" y="162.89" width="81.44" height="81.44" fill="#dbf3fc"/><polygon points="81.44,162.89 162.88,162.89 81.44,244.32999999999998" fill="#fdf9dc"/><rect x="162.89" y="162.89" width="81.44" height="81.44" fill="#f8fdfe"/><rect x="162.89" y="162.89" width="81.44" height="81.44" fill="#f5e256"/><rect x="244.33" y="162.89" width="81.44" height="81.44" fill="#a4e2f7"/><path d="M 244.33 162.89 A 81.44 81.44 0 0 1 325.77 244.32999999999998 L 244.33 244.32999999999998" fill="#f8eb8e"/><rect x="325.78" y="162.89" width="81.44" height="81.44" fill="#64cdf2"/><rect x="325.78" y="162.89" width="81.44" height="81.44" fill="#bae9f9"/><rect x="407.22" y="162.89" width="81.44" height="81.44" fill="#8fdbf5"/><polygon points="407.22,162.89 488.66,162.89 407.22,244.32999999999998" fill="#f9ee9d"/><rect x="488.67" y="162.89" width="81.44" height="81.44" fill="#a8e3f7"/><path d="M 488.67 244.32999999999998 A 81.44 81.44 0 0 1  570.11 162.89 L 570.11 244.32999999999998" fill="#f7e982"/><rect x="570.11" y="162.89" width="81.44" height="81.44" fill="#a4e2f7"/><path d="M 570.11 162.89 A 81.44 81.44 0 0 0 651.55 244.32999999999998 L 651.55 162.89" fill="#6dd0f2"/><rect x="651.56" y="162.89" width="81.44" height="81.44" fill="#93dcf6"/><polygon points="651.56,162.89 733,244.32999999999998 651.56,244.32999999999998" fill="#32bded"/><rect x="733" y="162.89" width="81.44" height="81.44" fill="#6ed0f2"/><path d="M 733 162.89 A 81.44 81.44 0 0 1  814.44 244.32999999999998 L 733 162.89 A 81.44 81.44 0 0 0 814.44 244.32999999999998" fill="#c8edfa"/><rect x="814.44" y="162.89" width="81.44" height="81.44" fill="#98def6"/><polygon points="814.44,162.89 895.8800000000001,244.32999999999998 814.44,244.32999999999998" fill="#60ccf1"/><rect x="895.89" y="162.89" width="81.44" height="81.44" fill="#cfeffb"/><path d="M 895.89 244.32999999999998 A 81.44 81.44 0 0 1  977.3299999999999 162.89 L 977.3299999999999 244.32999999999998" fill="#75d2f3"/><rect x="977.33" y="162.89" width="81.44" height="81.44" fill="#f5e361"/><polygon points="977.33,162.89 1058.77,244.32999999999998 977.33,244.32999999999998" fill="#5ac9f1"/><rect x="1058.78" y="162.89" width="81.44" height="81.44" fill="#fefdf3"/><polygon points="1058.78,162.89 1140.22,162.89 1140.22,244.32999999999998" fill="#faf1b1"/><rect x="1140.22" y="162.89" width="81.44" height="81.44" fill="#f9ed99"/><rect x="1140.22" y="162.89" width="81.44" height="81.44" fill="#8edaf5"/><rect x="1221.67" y="162.89" width="81.44" height="81.44" fill="#f9efa4"/><polygon points="1221.67,162.89 1303.1100000000001,162.89 1221.67,244.32999999999998" fill="#fffef9"/><rect x="0" y="244.33" width="81.44" height="81.44" fill="#fffef7"/><rect x="0" y="244.33" width="81.44" height="81.44" fill="#75d2f3"/><rect x="81.44" y="244.33" width="81.44" height="81.44" fill="#f5e35f"/><polygon points="162.88,244.33 162.88,325.77 81.44,325.77" fill="#f5fcfe"/><rect x="162.89" y="244.33" width="81.44" height="81.44" fill="#b4e7f8"/><polygon points="244.32999999999998,244.33 244.32999999999998,325.77 162.89,325.77" fill="#50c6f0"/><rect x="244.33" y="244.33" width="81.44" height="81.44" fill="#72d1f3"/><polygon points="244.33,244.33 325.77,244.33 325.77,325.77" fill="#f6e56b"/><rect x="325.78" y="244.33" width="81.44" height="81.44" fill="#d3f1fb"/><polygon points="325.78,244.33 407.21999999999997,244.33 325.78,325.77" fill="#f5e361"/><rect x="407.22" y="244.33" width="81.44" height="81.44" fill="#f7e980"/><rect x="407.22" y="244.33" width="81.44" height="81.44" fill="#f9ee9d"/><rect x="488.67" y="244.33" width="81.44" height="81.44" fill="#e5f7fd"/><polygon points="488.67,244.33 570.11,244.33 488.67,325.77" fill="#59c9f1"/><rect x="570.11" y="244.33" width="81.44" height="81.44" fill="#f9efa1"/><path d="M 570.11 244.33 A 81.44 81.44 0 0 1  651.55 325.77 L 570.11 244.33 A 81.44 81.44 0 0 0 651.55 325.77" fill="#fefbeb"/><rect x="651.56" y="244.33" width="81.44" height="81.44" fill="#f9efa4"/><path d="M 651.56 325.77 A 81.44 81.44 0 0 0 733 244.33 L 651.56 244.33" fill="#fefdf3"/><rect x="733" y="244.33" width="81.44" height="81.44" fill="#feffff"/><polygon points="733,244.33 814.44,325.77 733,325.77" fill="#66cef2"/><rect x="814.44" y="244.33" width="81.44" height="81.44" fill="#f8ea86"/><path d="M 814.44 325.77 A 81.44 81.44 0 0 1  895.8800000000001 244.33 L 814.44 325.77 A 81.44 81.44 0 0 0 895.8800000000001 244.33" fill="#9adef6"/><rect x="895.89" y="244.33" width="81.44" height="81.44" fill="#7ed5f4"/><polygon points="977.3299999999999,244.33 977.3299999999999,325.77 895.89,325.77" fill="#f9efa1"/><rect x="977.33" y="244.33" width="81.44" height="81.44" fill="#faf1ad"/><polygon points="1058.77,244.33 1058.77,325.77 977.33,325.77" fill="#fbf3b9"/><rect x="1058.78" y="244.33" width="81.44" height="81.44" fill="#99def6"/><rect x="1058.78" y="244.33" width="81.44" height="81.44" fill="#4fc6f0"/><rect x="1140.22" y="244.33" width="81.44" height="81.44" fill="#f7e87e"/><path d="M 1140.22 325.77 A 81.44 81.44 0 0 1  1221.66 244.33 L 1221.66 325.77" fill="#f9ed99"/><rect x="1221.67" y="244.33" width="81.44" height="81.44" fill="#f8ea88"/><path d="M 1221.67 244.33 A 81.44 81.44 0 0 1 1303.1100000000001 325.77 L 1221.67 325.77" fill="#b6e7f9"/><rect x="0" y="325.78" width="81.44" height="81.44" fill="#74d2f3"/><rect x="0" y="325.78" width="81.44" height="81.44" fill="#7ad4f3"/><rect x="81.44" y="325.78" width="81.44" height="81.44" fill="#f8ea89"/><rect x="81.44" y="325.78" width="81.44" height="81.44" fill="#f8eb8d"/><rect x="162.89" y="325.78" width="81.44" height="81.44" fill="#f8ec94"/><path d="M 162.89 407.21999999999997 A 81.44 81.44 0 0 0 244.32999999999998 325.78 L 162.89 325.78" fill="#c3ecfa"/><rect x="244.33" y="325.78" width="81.44" height="81.44" fill="#70d1f3"/><path d="M 244.33 407.21999999999997 A 81.44 81.44 0 0 0 325.77 325.78 L 244.33 325.78" fill="#f7ea84"/><rect x="325.78" y="325.78" width="81.44" height="81.44" fill="#f6e569"/><rect x="325.78" y="325.78" width="81.44" height="81.44" fill="#f9efa3"/><rect x="407.22" y="325.78" width="81.44" height="81.44" fill="#bce9f9"/><rect x="407.22" y="325.78" width="81.44" height="81.44" fill="#fbf3bd"/><rect x="488.67" y="325.78" width="81.44" height="81.44" fill="#7dd5f4"/><path d="M 488.67 407.21999999999997 A 81.44 81.44 0 0 0 570.11 325.78 L 488.67 325.78" fill="#93dcf6"/><rect x="570.11" y="325.78" width="81.44" height="81.44" fill="#f7e777"/><path d="M 570.11 325.78 A 81.44 81.44 0 0 0 651.55 407.21999999999997 L 651.55 325.78" fill="#e5f7fd"/><rect x="651.56" y="325.78" width="81.44" height="81.44" fill="#f6e670"/><polygon points="651.56,325.78 733,407.21999999999997 651.56,407.21999999999997" fill="#f9efa4"/><rect x="733" y="325.78" width="81.44" height="81.44" fill="#f9eea0"/><rect x="733" y="325.78" width="81.44" height="81.44" fill="#fdf9df"/><rect x="814.44" y="325.78" width="81.44" height="81.44" fill="#3bc0ee"/><polygon points="814.44,325.78 895.8800000000001,325.78 814.44,407.21999999999997" fill="#fbf5c3"/><rect x="895.89" y="325.78" width="81.44" height="81.44" fill="#fdfbe6"/><polygon points="895.89,325.78 977.3299999999999,325.78 895.89,407.21999999999997" fill="#8edaf5"/><rect x="977.33" y="325.78" width="81.44" height="81.44" fill="#fefbe9"/><polygon points="1058.77,325.78 1058.77,407.21999999999997 977.33,407.21999999999997" fill="#f5e25b"/><rect x="1058.78" y="325.78" width="81.44" height="81.44" fill="#9fe0f7"/><polygon points="1058.78,325.78 1140.22,407.21999999999997 1058.78,407.21999999999997" fill="#4cc5ef"/><rect x="1140.22" y="325.78" width="81.44" height="81.44" fill="#f5e256"/><polygon points="1140.22,325.78 1221.66,325.78 1221.66,407.21999999999997" fill="#fefcee"/><rect x="1221.67" y="325.78" width="81.44" height="81.44" fill="#70d1f3"/><polygon points="1221.67,325.78 1303.1100000000001,325.78 1221.67,407.21999999999997" fill="#f5e464"/><rect x="0" y="407.22" width="81.44" height="81.44" fill="#79d4f3"/><polygon points="0,407.22 81.44,407.22 81.44,488.66" fill="#60cbf1"/><rect x="81.44" y="407.22" width="81.44" height="81.44" fill="#fdf9df"/><rect x="81.44" y="407.22" width="81.44" height="81.44" fill="#b0e6f8"/><rect x="162.89" y="407.22" width="81.44" height="81.44" fill="#f6e66d"/><path d="M 162.89 488.66 A 81.44 81.44 0 0 1  244.32999999999998 407.22 L 162.89 488.66 A 81.44 81.44 0 0 0 244.32999999999998 407.22" fill="#fbf4c2"/><rect x="244.33" y="407.22" width="81.44" height="81.44" fill="#a3e1f7"/><path d="M 244.33 407.22 A 81.44 81.44 0 0 0 325.77 488.66 L 325.77 407.22" fill="#fdfeff"/><rect x="325.78" y="407.22" width="81.44" height="81.44" fill="#faf2b6"/><polygon points="325.78,407.22 407.21999999999997,407.22 407.21999999999997,488.66" fill="#57c8f0"/><rect x="407.22" y="407.22" width="81.44" height="81.44" fill="#f5e464"/><polygon points="407.22,407.22 488.66,488.66 407.22,488.66" fill="#fbf4c2"/><rect x="488.67" y="407.22" width="81.44" height="81.44" fill="#7ad4f3"/><rect x="488.67" y="407.22" width="81.44" height="81.44" fill="#f7e776"/><rect x="570.11" y="407.22" width="81.44" height="81.44" fill="#f4e153"/><polygon points="570.11,407.22 651.55,407.22 651.55,488.66" fill="#30bced"/><rect x="651.56" y="407.22" width="81.44" height="81.44" fill="#f6e773"/><polygon points="651.56,407.22 733,488.66 651.56,488.66" fill="#e4f6fd"/><rect x="733" y="407.22" width="81.44" height="81.44" fill="#fefbe9"/><path d="M 733 488.66 A 81.44 81.44 0 0 1  814.44 407.22 L 814.44 488.66" fill="#f5e259"/><rect x="814.44" y="407.22" width="81.44" height="81.44" fill="#faf1ad"/><rect x="814.44" y="407.22" width="81.44" height="81.44" fill="#f5e258"/><rect x="895.89" y="407.22" width="81.44" height="81.44" fill="#fdf8d9"/><path d="M 895.89 407.22 A 81.44 81.44 0 0 1 977.3299999999999 488.66 L 895.89 488.66" fill="#c3ebfa"/><rect x="977.33" y="407.22" width="81.44" height="81.44" fill="#c6ecfa"/><rect x="977.33" y="407.22" width="81.44" height="81.44" fill="#6dd0f2"/><rect x="1058.78" y="407.22" width="81.44" height="81.44" fill="#fefbe8"/><polygon points="1058.78,407.22 1140.22,488.66 1058.78,488.66" fill="#a3e1f7"/><rect x="1140.22" y="407.22" width="81.44" height="81.44" fill="#a2e1f7"/><polygon points="1140.22,407.22 1221.66,488.66 1140.22,488.66" fill="#55c8f0"/><rect x="1221.67" y="407.22" width="81.44" height="81.44" fill="#77d3f3"/><rect x="1221.67" y="407.22" width="81.44" height="81.44" fill="#73d2f3"/><rect x="0" y="488.67" width="81.44" height="81.44" fill="#e6f7fd"/><rect x="0" y="488.67" width="81.44" height="81.44" fill="#fdf9dd"/><rect x="81.44" y="488.67" width="81.44" height="81.44" fill="#aae4f8"/><polygon points="81.44,488.67 162.88,488.67 81.44,570.11" fill="#faf1b1"/><rect x="162.89" y="488.67" width="81.44" height="81.44" fill="#43c2ef"/><polygon points="162.89,488.67 244.32999999999998,488.67 162.89,570.11" fill="#d2f0fb"/><rect x="244.33" y="488.67" width="81.44" height="81.44" fill="#f3fbfe"/><path d="M 244.33 570.11 A 81.44 81.44 0 0 1  325.77 488.67 L 325.77 570.11" fill="#c8edfa"/><rect x="325.78" y="488.67" width="81.44" height="81.44" fill="#f6e569"/><path d="M 325.78 488.67 A 81.44 81.44 0 0 0 407.21999999999997 570.11 L 407.21999999999997 488.67" fill="#47c4ef"/><rect x="407.22" y="488.67" width="81.44" height="81.44" fill="#68cef2"/><path d="M 407.22 570.11 A 81.44 81.44 0 0 1  488.66 488.67 L 488.66 570.11" fill="#f8eb8a"/><rect x="488.67" y="488.67" width="81.44" height="81.44" fill="#f7e982"/><path d="M 488.67 488.67 A 81.44 81.44 0 0 1  570.11 570.11 L 488.67 488.67 A 81.44 81.44 0 0 0 570.11 570.11" fill="#b5e7f9"/><rect x="570.11" y="488.67" width="81.44" height="81.44" fill="#e4f6fd"/><rect x="570.11" y="488.67" width="81.44" height="81.44" fill="#dcf4fc"/><rect x="651.56" y="488.67" width="81.44" height="81.44" fill="#8fdbf5"/><path d="M 651.56 570.11 A 81.44 81.44 0 0 1  733 488.67 L 733 570.11" fill="#feffff"/><rect x="733" y="488.67" width="81.44" height="81.44" fill="#f7e87c"/><rect x="733" y="488.67" width="81.44" height="81.44" fill="#9ddff6"/><rect x="814.44" y="488.67" width="81.44" height="81.44" fill="#fcf7cf"/><polygon points="814.44,488.67 895.8800000000001,488.67 895.8800000000001,570.11" fill="#caeefa"/><rect x="895.89" y="488.67" width="81.44" height="81.44" fill="#faf0a6"/><rect x="895.89" y="488.67" width="81.44" height="81.44" fill="#fdf9da"/><rect x="977.33" y="488.67" width="81.44" height="81.44" fill="#60ccf1"/><rect x="977.33" y="488.67" width="81.44" height="81.44" fill="#f6e56c"/><rect x="1058.78" y="488.67" width="81.44" height="81.44" fill="#35beed"/><rect x="1058.78" y="488.67" width="81.44" height="81.44" fill="#5ecbf1"/><rect x="1140.22" y="488.67" width="81.44" height="81.44" fill="#76d3f3"/><rect x="1140.22" y="488.67" width="81.44" height="81.44" fill="#8cdaf5"/><rect x="1221.67" y="488.67" width="81.44" height="81.44" fill="#82d7f4"/><path d="M 1221.67 488.67 A 81.44 81.44 0 0 1  1303.1100000000001 570.11 L 1221.67 488.67 A 81.44 81.44 0 0 0 1303.1100000000001 570.11" fill="#fbf4bd"/><rect x="0" y="570.11" width="81.44" height="81.44" fill="#daf3fc"/><path d="M 0 570.11 A 81.44 81.44 0 0 0 81.44 651.55 L 81.44 570.11" fill="#46c3ef"/><rect x="81.44" y="570.11" width="81.44" height="81.44" fill="#c1ebfa"/><path d="M 81.44 570.11 A 81.44 81.44 0 0 0 162.88 651.55 L 162.88 570.11" fill="#fdf9df"/><rect x="162.89" y="570.11" width="81.44" height="81.44" fill="#bdeaf9"/><polygon points="162.89,570.11 244.32999999999998,570.11 244.32999999999998,651.55" fill="#d0f0fb"/><rect x="244.33" y="570.11" width="81.44" height="81.44" fill="#f5e361"/><rect x="244.33" y="570.11" width="81.44" height="81.44" fill="#fefbe8"/><rect x="325.78" y="570.11" width="81.44" height="81.44" fill="#66cef2"/><polygon points="325.78,570.11 407.21999999999997,570.11 407.21999999999997,651.55" fill="#d0f0fb"/><rect x="407.22" y="570.11" width="81.44" height="81.44" fill="#fefdf5"/><path d="M 407.22 570.11 A 81.44 81.44 0 0 1  488.66 651.55 L 407.22 570.11 A 81.44 81.44 0 0 0 488.66 651.55" fill="#f8eb8e"/><rect x="488.67" y="570.11" width="81.44" height="81.44" fill="#f5e35c"/><rect x="488.67" y="570.11" width="81.44" height="81.44" fill="#f6e466"/><rect x="570.11" y="570.11" width="81.44" height="81.44" fill="#94dcf6"/><polygon points="570.11,570.11 651.55,651.55 570.11,651.55" fill="#fcf6cd"/><rect x="651.56" y="570.11" width="81.44" height="81.44" fill="#51c7f0"/><path d="M 651.56 651.55 A 81.44 81.44 0 0 0 733 570.11 L 651.56 570.11" fill="#fefdf1"/><rect x="733" y="570.11" width="81.44" height="81.44" fill="#86d8f4"/><polygon points="733,570.11 814.44,570.11 733,651.55" fill="#fffef9"/><rect x="814.44" y="570.11" width="81.44" height="81.44" fill="#50c6f0"/><polygon points="814.44,570.11 895.8800000000001,570.11 895.8800000000001,651.55" fill="#60ccf1"/><rect x="895.89" y="570.11" width="81.44" height="81.44" fill="#8bd9f5"/><rect x="895.89" y="570.11" width="81.44" height="81.44" fill="#75d2f3"/><rect x="977.33" y="570.11" width="81.44" height="81.44" fill="#fbf3bc"/><rect x="977.33" y="570.11" width="81.44" height="81.44" fill="#e8f7fd"/><rect x="1058.78" y="570.11" width="81.44" height="81.44" fill="#fcf6c9"/><polygon points="1140.22,570.11 1140.22,651.55 1058.78,651.55" fill="#f4e150"/><rect x="1140.22" y="570.11" width="81.44" height="81.44" fill="#8bdaf5"/><rect x="1140.22" y="570.11" width="81.44" height="81.44" fill="#fdf8d9"/><rect x="1221.67" y="570.11" width="81.44" height="81.44" fill="#a6e2f7"/><rect x="1221.67" y="570.11" width="81.44" height="81.44" fill="#f3fbfe"/><rect x="0" y="651.56" width="81.44" height="81.44" fill="#f1fbfe"/><polygon points="0,651.56 81.44,651.56 81.44,733" fill="#fffef8"/><rect x="81.44" y="651.56" width="81.44" height="81.44" fill="#f7e97f"/><path d="M 81.44 651.56 A 81.44 81.44 0 0 1 162.88 733 L 81.44 733" fill="#f9efa4"/><rect x="162.89" y="651.56" width="81.44" height="81.44" fill="#6ed0f2"/><rect x="162.89" y="651.56" width="81.44" height="81.44" fill="#3abfee"/><rect x="244.33" y="651.56" width="81.44" height="81.44" fill="#f6e467"/><path d="M 244.33 651.56 A 81.44 81.44 0 0 1 325.77 733 L 244.33 733" fill="#fefbe9"/><rect x="325.78" y="651.56" width="81.44" height="81.44" fill="#ddf4fc"/><polygon points="325.78,651.56 407.21999999999997,733 325.78,733" fill="#f6e670"/><rect x="407.22" y="651.56" width="81.44" height="81.44" fill="#b1e6f8"/><rect x="407.22" y="651.56" width="81.44" height="81.44" fill="#faf1ac"/><rect x="488.67" y="651.56" width="81.44" height="81.44" fill="#a9e3f7"/><rect x="488.67" y="651.56" width="81.44" height="81.44" fill="#f6e66e"/><rect x="570.11" y="651.56" width="81.44" height="81.44" fill="#beeaf9"/><path d="M 570.11 733 A 81.44 81.44 0 0 0 651.55 651.56 L 570.11 651.56" fill="#cbeefa"/><rect x="651.56" y="651.56" width="81.44" height="81.44" fill="#38bfee"/><rect x="651.56" y="651.56" width="81.44" height="81.44" fill="#fefcef"/><rect x="733" y="651.56" width="81.44" height="81.44" fill="#f9ee9b"/><path d="M 733 651.56 A 81.44 81.44 0 0 1 814.44 733 L 733 733" fill="#7dd5f4"/><rect x="814.44" y="651.56" width="81.44" height="81.44" fill="#f7e87c"/><path d="M 814.44 651.56 A 81.44 81.44 0 0 0 895.8800000000001 733 L 895.8800000000001 651.56" fill="#fcf6cd"/><rect x="895.89" y="651.56" width="81.44" height="81.44" fill="#f9ed9a"/><polygon points="895.89,651.56 977.3299999999999,733 895.89,733" fill="#e9f8fd"/><rect x="977.33" y="651.56" width="81.44" height="81.44" fill="#63ccf1"/><polygon points="977.33,651.56 1058.77,651.56 977.33,733" fill="#46c3ef"/><rect x="1058.78" y="651.56" width="81.44" height="81.44" fill="#faf0a7"/><rect x="1058.78" y="651.56" width="81.44" height="81.44" fill="#f5e35f"/><rect x="1140.22" y="651.56" width="81.44" height="81.44" fill="#f6e66e"/><rect x="1140.22" y="651.56" width="81.44" height="81.44" fill="#8bd9f5"/><rect x="1221.67" y="651.56" width="81.44" height="81.44" fill="#bdeaf9"/><polygon points="1221.67,651.56 1303.1100000000001,651.56 1303.1100000000001,733" fill="#fefdf5"/></g></svg>