<?xml version="1.0" standalone="no"?><svg xmlns:xlink="http://www.w3.org/1999/xlink" xmlns="http://www.w3.org/2000/svg" viewBox="0 0 1000 500.0005280628437" preserveAspectRatio="xMaxYMax slice"><g transform="scale(1.056125687405807)"><rect x="0" y="0" width="946.858" height="473.429" fill="#ffffff"/><path d="M 394.52 78.9 A 78.9 78.9 0 0 1  473.41999999999996 0 L 394.52 78.9 A 78.9 78.9 0 0 0 473.41999999999996 0" fill="#6cc8f0"/><path d="M 552.33 157.8 A 78.9 78.9 0 0 0 631.23 78.9 L 552.33 78.9" fill="#fff8bc"/><path d="M 867.95 78.9 A 78.9 78.9 0 0 1 946.85 157.8 L 867.95 157.8" fill="#a1dcf5"/><path d="M 789.05 157.81 A 78.9 78.9 0 0 1  867.9499999999999 236.71 L 789.05 157.81 A 78.9 78.9 0 0 0 867.9499999999999 236.71" fill="#fff59b"/><path d="M 315.62 236.71 A 78.9 78.9 0 0 0 394.52 315.61 L 394.52 236.71" fill="#fff27c"/><path d="M 631.24 236.71 A 78.9 78.9 0 0 0 710.14 315.61 L 710.14 236.71" fill="#fff8b9"/><path d="M 78.9 315.62 A 78.9 78.9 0 0 1 157.8 394.52 L 78.9 394.52" fill="#fff8ba"/><path d="M 789.05 394.52 A 78.9 78.9 0 0 1  867.9499999999999 473.41999999999996 L 789.05 394.52 A 78.9 78.9 0 0 0 867.9499999999999 473.41999999999996" fill="#83d1f2"/></g></svg>