<?xml version="1.0" standalone="no"?><svg xmlns:xlink="http://www.w3.org/1999/xlink" xmlns="http://www.w3.org/2000/svg" viewBox="0 0 1000 1500.0158420358916" preserveAspectRatio="xMaxYMax slice"><g transform="scale(3.1684071783433034)"><rect x="0" y="0" width="315.6193333333333" height="473.429" fill="#ffffff"/><path d="M 31.56 31.56 A 31.56 31.56 0 0 1  63.12 63.12 L 31.56 31.56 A 31.56 31.56 0 0 0 63.12 63.12" fill="#faf0ab"/><path d="M 94.69 31.56 A 31.56 31.56 0 0 1  126.25 63.12 L 94.69 31.56 A 31.56 31.56 0 0 0 126.25 63.12" fill="#7ad4f3"/><path d="M 126.25 31.56 A 31.56 31.56 0 0 1 157.81 63.12 L 126.25 63.12" fill="#fefcf0"/><path d="M 157.81 31.56 A 31.56 31.56 0 0 1  189.37 63.12 L 157.81 31.56 A 31.56 31.56 0 0 0 189.37 63.12" fill="#eef9fe"/><path d="M 220.93 63.12 A 31.56 31.56 0 0 1  252.49 31.56 L 220.93 63.12 A 31.56 31.56 0 0 0 252.49 31.56" fill="#56c8f0"/><path d="M 189.37 94.67999999999999 A 31.56 31.56 0 0 1  220.93 63.12 L 189.37 94.67999999999999 A 31.56 31.56 0 0 0 220.93 63.12" fill="#4ac4ef"/><path d="M 252.5 63.12 A 31.56 31.56 0 0 1  284.06 94.67999999999999 L 252.5 63.12 A 31.56 31.56 0 0 0 284.06 94.67999999999999" fill="#f6e66e"/><path d="M 157.81 189.37 A 31.56 31.56 0 0 1  189.37 220.93 L 157.81 189.37 A 31.56 31.56 0 0 0 189.37 220.93" fill="#f6e568"/><path d="M 0 252.5 A 31.56 31.56 0 0 1  31.56 284.06 L 0 252.5 A 31.56 31.56 0 0 0 31.56 284.06" fill="#37beee"/><path d="M 126.25 252.5 A 31.56 31.56 0 0 1  157.81 284.06 L 126.25 252.5 A 31.56 31.56 0 0 0 157.81 284.06" fill="#f6e56c"/><path d="M 284.06 284.06 A 31.56 31.56 0 0 1  315.62 252.5 L 315.62 284.06" fill="#d2f0fb"/><path d="M 0 378.74 A 31.56 31.56 0 0 1  31.56 347.18 L 31.56 378.74" fill="#f9ed98"/><path d="M 94.69 410.3 A 31.56 31.56 0 0 1  126.25 378.74 L 94.69 410.3 A 31.56 31.56 0 0 0 126.25 378.74" fill="#f5e25a"/><path d="M 157.81 378.74 A 31.56 31.56 0 0 1  189.37 410.3 L 157.81 378.74 A 31.56 31.56 0 0 0 189.37 410.3" fill="#fbf3bc"/><path d="M 31.56 410.31 A 31.56 31.56 0 0 1 63.12 441.87 L 31.56 441.87" fill="#f6e56c"/><path d="M 126.25 441.87 A 31.56 31.56 0 0 1 157.81 473.43 L 126.25 473.43" fill="#63cdf1"/></g></svg>