<?xml version="1.0" encoding="UTF-8"?>
<svg xmlns="http://www.w3.org/2000/svg" xmlns:xlink="http://www.w3.org/1999/xlink" width="750pt" height="749.999995pt" viewBox="0 0 750 749.999995" version="1.2">
<defs>
<clipPath id="clip1">
  <path d="M 14 4 L 738 4 L 738 749.695312 L 14 749.695312 Z M 14 4 "/>
</clipPath>
</defs>
<g id="surface1">
<g clip-path="url(#clip1)" clip-rule="nonzero">
<path style=" stroke:none;fill-rule:nonzero;fill:rgb(0%,79.998779%,40.388489%);fill-opacity:1;" d="M 704.609375 666.925781 L 704.777344 666.925781 Z M 138.007812 38.316406 C 130.84375 38.316406 124.066406 41.558594 116.703125 48.003906 C 115.894531 48.769531 105.363281 58.757812 98.507812 65.277344 L 92.523438 70.929688 C 57.574219 103.585938 41.726562 162.367188 52.15625 220.710938 C 55.507812 239.554688 60.925781 259.082031 68.257812 278.730469 C 105.199219 377.882812 175.324219 464.085938 227.664062 518.964844 C 279.761719 574.203125 362.15625 648.800781 459.230469 690.96875 C 478.488281 699.328125 497.699219 705.789062 516.34375 710.152344 C 574.082031 723.671875 633.675781 711.007812 668.148438 677.886719 L 673.894531 672.429688 C 680.566406 666.132812 690.980469 656.277344 692.492188 654.828125 C 713.960938 632.757812 703.234375 614.410156 660.171875 570.644531 L 649.402344 559.59375 C 622.125 531.300781 576.355469 483.929688 537.664062 488.550781 C 527.144531 489.792969 516.164062 497.460938 504.539062 505.566406 C 493 513.613281 481.078125 521.925781 466.773438 526.457031 C 428.363281 538.628906 389.417969 530.628906 357.054688 503.980469 C 337.710938 488.042969 318.019531 469.394531 300.140625 450.105469 C 282.050781 431.476562 264.484375 410.839844 249.613281 390.699219 C 224.730469 356.992188 218.835938 317.699219 233.035156 280.015625 C 238.332031 265.976562 247.277344 254.519531 255.941406 243.441406 C 264.664062 232.269531 272.910156 221.730469 274.703125 211.292969 C 281.363281 172.832031 236.503906 124.730469 209.691406 95.972656 L 199.25 84.640625 C 170.835938 53.582031 153.554688 38.316406 138.007812 38.316406 Z M 562.933594 749.691406 C 543.632812 749.691406 525.082031 747.34375 508.53125 743.46875 C 487.898438 738.65625 466.714844 731.535156 445.570312 722.355469 C 343.171875 677.886719 257.035156 600.011719 202.8125 542.515625 C 148.320312 485.394531 75.125 395.257812 36.164062 290.675781 C 28.113281 269.101562 22.15625 247.582031 18.433594 226.722656 C 8.558594 171.441406 16.683594 94.914062 69.140625 45.941406 L 74.929688 40.4375 C 82.230469 33.515625 93.585938 22.734375 94.050781 22.332031 C 146.523438 -23.710938 193.472656 27.59375 224.519531 61.550781 L 234.753906 72.648438 C 265.890625 106.039062 318.003906 161.933594 308.457031 217.125 C 305.183594 236.007812 293.363281 251.15625 282.933594 264.507812 C 275.527344 273.976562 268.523438 282.933594 265.082031 292.082031 C 254.96875 318.910156 259.15625 345.988281 277.171875 370.378906 C 291.148438 389.292969 307.679688 408.714844 324.992188 426.554688 C 342.125 445.039062 360.660156 462.578125 378.839844 477.574219 C 402.257812 496.863281 429.082031 502.472656 456.433594 493.84375 C 465.753906 490.867188 475.0625 484.378906 484.921875 477.5 C 498.835938 467.8125 514.578125 456.804688 533.636719 454.5625 C 589.460938 447.984375 642.367188 502.980469 674.058594 535.847656 L 684.605469 546.644531 C 716.863281 579.449219 765.625 629.035156 716.863281 678.886719 C 716.101562 679.621094 704.65625 690.476562 697.429688 697.292969 L 691.863281 702.574219 C 655.789062 737.234375 607.445312 749.691406 562.933594 749.691406 "/>
</g>
</g>
</svg>
