<svg xmlns="http://www.w3.org/2000/svg" width="750" viewBox="0 0 750 750" height="750" version="1.0"><defs><clipPath id="a"><path d="M 14.964844 101.375 L 734.964844 101.375 L 734.964844 648.875 L 14.964844 648.875 Z M 14.964844 101.375"/></clipPath></defs><g clip-path="url(#a)"><path fill="#30BCED" d="M 399.984375 372.132812 C 385.730469 384.777344 364.226562 384.777344 349.976562 372.140625 L 105.171875 154.941406 L 644.78125 154.941406 Z M 495.472656 392.449219 L 459.015625 431.347656 L 633.855469 595.417969 L 114.113281 595.417969 L 280.0625 430.671875 L 242.535156 392.808594 L 68.289062 565.800781 L 68.289062 193.480469 L 314.609375 412.027344 C 331.253906 426.804688 352.695312 434.9375 374.976562 434.9375 C 397.261719 434.9375 418.703125 426.804688 435.347656 412.027344 L 681.679688 193.472656 L 681.679688 567.183594 Z M 655.390625 101.613281 L 94.570312 101.613281 C 50.6875 101.613281 14.992188 137.339844 14.992188 181.246094 L 14.992188 569.121094 C 14.992188 613.023438 50.6875 648.742188 94.570312 648.742188 L 655.390625 648.742188 C 699.273438 648.742188 734.976562 613.023438 734.976562 569.121094 L 734.976562 181.246094 C 734.976562 137.339844 699.273438 101.613281 655.390625 101.613281"/></g></svg>