<svg id="Layer_1" data-name="Layer 1" xmlns="http://www.w3.org/2000/svg" viewBox="0 0 600.78 74.33"><path d="M218.47,261.22c-7.62,24-14.95,47.29-22.46,70.47-.35,1.08-2.29,2.17-3.61,2.32a83.89,83.89,0,0,1-9.48.11q-6.36-22.53-12.69-44.92l-1-.21c-4.33,15-8.67,29.94-13,44.77-12.39,1.27-12.41,1.27-16-10.06-6.54-20.56-13.06-41.12-19.73-62.14h15.29c4.59,14.87,9.17,29.72,14.07,45.62,4.48-15.85,8.66-30.65,12.82-45.35a3.85,3.85,0,0,1,1.05-.46c12.46-.87,12.46-.87,15.81,11.17l9.4,33.85c1-2.57,1.71-4.1,2.21-5.69,3.7-11.71,7.49-23.4,10.93-35.18,1-3.29,2.28-4.72,5.79-4.37C211.21,261.47,214.56,261.22,218.47,261.22Z" transform="translate(-120.55 -260.47)"/><path d="M705.41,305H684.83V291h36c2.89,20-8,37.2-26.61,42.48A37,37,0,0,1,666,265.79c16-9.39,36.16-5.31,48.1,10L703.12,284c-11.81-9.81-21.33-11.42-30.76-5.31a22.7,22.7,0,0,0-9.61,25.66,22.31,22.31,0,0,0,21.16,16C694.26,320.39,702.35,314.85,705.41,305Z" transform="translate(-120.55 -260.47)"/><path d="M278.73,334V261.22c4.7,0,9.45-.11,14.19,0,6.14.17,12.39-.12,18.39,1,16.17,2.9,21.78,17.83,12.08,31.25l-1.44,2a20.67,20.67,0,0,1,9.27,15.19c1.4,12.46-6.93,22.36-20.52,23.23C300.26,334.54,289.75,334,278.73,334Zm14.33-13.75c5.69,0,10.82.29,15.9-.09,4.16-.31,7.21-2.49,7.55-7.18s-2-7.94-6.42-8.72a82.11,82.11,0,0,0-14.39-.78c-.88,0-2.47,1.68-2.52,2.65C292.91,310.74,293.06,315.36,293.06,320.26Zm.29-29.77c5.06-.38,9.81-.46,14.46-1.18,4-.61,5.81-3.48,5.63-7.52s-2.7-6.18-6.25-6.53c-4.52-.43-9.11-.1-13.84-.1Z" transform="translate(-120.55 -260.47)"/><path d="M641,334.13a69.19,69.19,0,0,0-7.39,0c-3.88.45-6.31-1-8.56-4.27-8.37-12.22-17.08-24.21-25.67-36.28-.95-1.33-2-2.61-3.79-5v45.11H581.56v-72.5a97.23,97.23,0,0,1,10.81.14c1.3.14,2.71,1.64,3.59,2.86,8.84,12.31,17.57,24.68,26.34,37,1.14,1.6,2.35,3.14,4.52,6V261.54H641Z" transform="translate(-120.55 -260.47)"/><path d="M537.14,334.32c-20.76,0-36.69-15.94-36.69-36.66S516.4,261,537.17,261a36.65,36.65,0,1,1,0,73.29Zm22.4-36.5a22.3,22.3,0,0,0-22.26-22.69,22.55,22.55,0,1,0-.28,45.09A22.27,22.27,0,0,0,559.54,297.82Z" transform="translate(-120.55 -260.47)"/><path d="M482.79,306.88,501.74,334c-5.94,0-11.13.13-16.3-.12-1-.05-2.06-1.51-2.79-2.54-3.57-5-6.59-10.49-10.64-15.06-5.53-6.24-5.05-13.24-4.48-20.66,2.49-.41,4.77-.66,7-1.17,6.15-1.43,8.56-4.89,8-11.2-.46-4.94-3.77-7.8-9.55-8.24-13.39-1-13.39-1-13.39,12.3v46.34H445.8V261.22c5.61,0,11.36-.11,17.1,0,5.47.13,11-.05,16.37.92,10.46,1.9,16.1,8.26,17.79,18.82,1.62,10.17-2.55,19.21-11.17,24.15Z" transform="translate(-120.55 -260.47)"/><path d="M333.1,321.18l8.36-10c4.41,3,8.52,6,12.83,8.67,1.33.83,3.18.94,4.83,1.12,6,.66,11-1.77,12-5.78s-1.24-6.62-7.81-9.33c-4.3-1.77-8.72-3.28-12.91-5.28-11.39-5.44-16.12-14.32-13.22-24.29,3-10.26,14-17,25.5-15.62a38.55,38.55,0,0,1,22.41,10.42l-8,10.49c-4.85-2.36-9.29-4.9-14-6.65a10.24,10.24,0,0,0-7.17.3c-1.93.89-4.17,3.29-4.34,5.19s1.65,4.83,3.42,5.75c5.87,3.06,12.15,5.34,18.21,8.06s10.69,6.73,12.21,13.54c2.43,10.84-2.57,20.32-12.93,24.57C358.94,337.86,342.15,333.28,333.1,321.18Z" transform="translate(-120.55 -260.47)"/><path d="M406,274.84H386.6V261.51H440v13.23H420.34v59.08H406Z" transform="translate(-120.55 -260.47)"/><path d="M222.7,274.34V261.62h46.55v12.72Z" transform="translate(-120.55 -260.47)"/><path d="M269.34,291.53v12.92H222.78V291.53Z" transform="translate(-120.55 -260.47)"/><path d="M222.82,333.77V321.42H269.3v12.35Z" transform="translate(-120.55 -260.47)"/></svg>